<svg width="20" height="20" viewBox="0 0 20 20" fill="none" xmlns="http://www.w3.org/2000/svg">
<path d="M1 1H19V19H1V1Z" fill="#CEC6FF"/>
<g clip-path="url(#clip0_1_62)">
<path fill-rule="evenodd" clip-rule="evenodd" d="M1.42857 0L0 1.42857V18.5714L1.42857 20H18.5714L20 18.5714V1.42857L18.5714 0H1.42857ZM18 18.5H9V1.42857H18V18.5Z" fill="#0D011D"/>
</g>
<path fill-rule="evenodd" clip-rule="evenodd" d="M3.9375 12.8705H2.25V7.808H6.75V8.933H7.3125V7.52675L7.03125 7.2455H6.1875V6.683H5.625C5.625 6.38463 5.50647 6.09848 5.29549 5.8875C5.08452 5.67653 4.79837 5.558 4.5 5.558C4.20163 5.558 3.91548 5.67653 3.7045 5.8875C3.49353 6.09848 3.375 6.38463 3.375 6.683H2.77875V7.2455H1.96875L1.6875 7.52675V13.1517L1.96875 13.433H3.9375V12.8705ZM3.9375 6.5705C3.9583 6.45883 4.01242 6.35607 4.09274 6.27574C4.17307 6.19542 4.27583 6.1413 4.3875 6.1205C4.49719 6.09909 4.61077 6.11084 4.71375 6.15425C4.81725 6.19358 4.90578 6.26441 4.96687 6.35675C5.0123 6.42185 5.04343 6.49582 5.05823 6.57381C5.07302 6.6518 5.07114 6.73203 5.05271 6.80924C5.03429 6.88645 4.99972 6.95889 4.9513 7.02179C4.90288 7.08468 4.84169 7.13662 4.77176 7.17418C4.70183 7.21175 4.62474 7.23408 4.54556 7.23972C4.46639 7.24537 4.38691 7.23419 4.31236 7.20692C4.23781 7.17965 4.16988 7.13691 4.11303 7.08152C4.05617 7.02612 4.01169 6.95932 3.9825 6.8855C3.93749 6.78702 3.92187 6.67764 3.9375 6.5705ZM7.92 11.8917L7.3125 12.5049V9.4955H6.75V12.4992L6.1425 11.8917L5.74312 12.2911L6.83437 13.3767H7.23375L8.31937 12.2911L7.92 11.8917ZM4.59 9.55175H4.98937L6.075 10.6374L5.67562 11.0367L5.06812 10.4292V13.433H4.50562V10.4236L3.89812 11.0367L3.49875 10.6374L4.59 9.55175Z" fill="#CEC6FF"/>
<defs>
<clipPath id="clip0_1_62">
<rect width="20" height="20" fill="white"/>
</clipPath>
</defs>
</svg>
